<svg xmlns="http://www.w3.org/2000/svg" viewBox="0 0 1737.01 735.66" fill="currentColor"><path fill-rule="evenodd" clip-rule="evenodd" d="M203 .33L184 1.06 161 3 135 8.06 122 11.95 109 16.9 94 24.13 81 31.95 71 39.06 57 51.13 46.59 62.33 38.62 72.33 30 85.33 23.81 96.33 16.58 112.33 11.62 126.33 7.73 140.33 4.67 155.33 1.67 183.33 1.5 203.33 2.5 238.33 2.5 301.33 0 444.33 0 498.33 .67 534.33 2.67 570.33 4.67 584.33 7.67 598.33 11.62 612.33 15.62 623.33 25.67 644.33 31.67 654.33 38.81 664.33 52.9 680.33 68 693.66 79 701.6 87 706.53 107 716.66 128 724.44 148 729.66 165 732.66 184 734.66 210 733 234 732.83 280 734 316 735.66 381 735.66 408 733.6 435 729.6 456 724.72 477 717.72 495 709.53 507 702.66 516 696.66 533 682.75 548.34 666.33 555.28 657.33 563.34 645.33 571.43 630.33 579.11 610.33 584.28 587.33 586.34 569.33 587.34 551.33 589.34 456.33 589.34 363.33 587.67 252.33 588.01 190.33 587.34 175.33 584.34 151.33 580.28 133.33 574.11 114.33 564.5 93.33 554.11 76.33 542.42 61.33 527 45.92 513 34.95 499 26.06 481 17.13 461 9.9 436 4 412 1.33 351 2 258 0ZM294 41L376 40.34 397 41.06 411 42 426 44 440 47 454 51.22 468 56.9 483 65 496 74.13 506 82.92 516.28 94.33 524.2 105.33 529.5 114.33 536.2 128.33 541.2 142.33 545.2 158.33 547.47 172.33 548.67 186.33 548.67 556.33 546.2 576.33 541.43 596.33 535.2 612.33 527 624.32 526.67 287.33 526.2 284.33 524.2 279.33 521.5 275.33 515.81 269.33 504 261 487 252.9 461 244.06 436 237.95 408 233 375 229 355 228.33 343 226.72 322.39 162.33 315.39 142.33 310.47 131.33 305.59 125.33 299 120.9 290 118.06 282 117.33 205 116 177 117 155 119.06 141 121.13 114 127.22 92 134.95 83 139 76 143.22 70.47 148.33 67.81 152.33 65.54 159.33 64.5 169.33 66.34 284.33 66.67 346.33 66.34 503.33 64.5 590.33 64.67 624.33 64 625.33 63 624.79 60.54 621.33 55.81 613.33 52.58 606.33 48.62 595.33 45.62 583.33 42.67 566.33 40.67 549.33 40.67 291.33 42.73 176.33 43.67 167.33 46.73 151.33 50.81 137.33 54.58 127.33 61.81 112.33 68.67 101.33 74.67 93.33 86 81.13 97 71.95 109 64 120 58.13 138 50.95 161 45 184 41.83 244 42.34ZM771.43 54.33L693.58 310.33 694 313.33 746 313.13 764.62 250.33 766 248.34 861 248.34 862.11 250.33 879.67 311.33 881 313.33 937 313.34 937.67 312.33 937.34 309.33 859.47 54.33 858 53.66 772 53.66ZM810 97.13L817 97 818.2 99.33 848.43 203.33 848.9 205.33 848 206.33 779 206.33 778 205.66ZM1188 109.33L1178 111 1167 113.95 1159 117.13 1150 121.95 1140 129.13 1132.59 136.33 1126.9 143.33 1121.73 151.33 1116.81 161.33 1113.58 170.33 1110.67 181.33 1108.67 193.33 1107.67 206.33 1107.67 220.33 1108.67 232.33 1110.81 245.33 1112.81 253.33 1116.67 264.33 1119.81 271.33 1125.73 281.33 1131.81 289.33 1138 295.75 1145 301.44 1153 306.6 1161 310.44 1170 313.72 1178 315.72 1190 317.6 1204 318.34 1213 318 1219 317.66 1232 315.53 1245 311.53 1255 306.6 1264 300.6 1273.2 292.33 1280.28 283.33 1286.43 272.33 1291.34 259.33 1293.34 249.33 1243 249 1241.62 250.33 1239.2 257.33 1235.11 264.33 1232 268.13 1225 274.6 1219 277.6 1212 279.53 1207 280 1197 279.53 1190 277.72 1182 273.6 1176.81 269.33 1171.9 263.33 1166.81 254.33 1163.58 245.33 1161.73 237.33 1160.67 226.33 1296 225.78 1296.34 212.33 1295.5 197.33 1292.34 176.33 1290.2 168.33 1286.2 157.33 1279.2 144.33 1272 134.92 1266 128.92 1257 122.06 1243 115 1234 112.06 1225 110.06 1211 108.66 1197 108.66ZM1430.97 109.33L1422 110.95 1416 113 1407 118.22 1396.9 128.33 1392.73 134.33 1388 143.33 1381 143.33 1380.5 142.33 1380.5 114.33 1380 113.66 1331 113.66 1330.5 114.33 1330.5 312.33 1331 312.83 1384 312.83 1384.5 312.33 1384.5 203.33 1384.73 198.33 1386.73 186.33 1391.67 173.33 1394.73 168.33 1401 161.13 1405 158.06 1411 155 1418 153.13 1424 152.66 1430 152.87 1436 154.13 1441 156.33 1445 159.13 1450.43 166.33 1454.39 177.33 1456.34 194.33 1456.34 312.33 1457 312.83 1509 312.83 1510.34 312.33 1510.34 181.33 1508.34 163.33 1506.2 154.33 1503.43 146.33 1500.2 139.33 1494.39 130.33 1486.78 122.33 1478 116.13 1468 111.9 1455 109.06 1438 108.66ZM1610.99 110.33L1598 112.95 1588 116.9 1578 123 1571 128.92 1563.62 137.33 1557.67 146.33 1551.73 159.33 1548.81 168.33 1545.81 181.33 1543.67 197.33 1543.67 228.33 1545.81 244.33 1548.81 257.33 1552.81 269.33 1559.9 283.33 1568 294.13 1575.46 301.33 1581 305.6 1592 311.53 1606 315.66 1612 316.6 1625 317.34 1636 316.6 1649 313.53 1659 308.6 1667 302.53 1672.2 297.33 1679 287.73 1680 287.34 1686 287.34 1686.67 288.33 1687 313 1736.01 313.33 1737.01 312.33 1737.01 114.33 1736 113.66 1687 113.89 1686.67 138.33 1686 139.33 1680 139.33 1678.54 138.33 1673.39 130.33 1666.55 123.33 1661 119 1652 114.22 1642 111.13 1635 110 1618 109.66ZM1061.99 112.33L1054 113.87 1048 115.87 1040 120 1036 122.95 1031.59 127.33 1028.67 131.33 1023.73 141.33 1021.47 149.33 1020 150 1014 150 1013.5 149.33 1013.5 114.33 1013 113.66 965 113.66 964 114.33 964 312.33 965 313.34 1017 313.34 1018.34 312.33 1018.34 211.33 1019.67 199.33 1021.62 191.33 1023.58 186.33 1026.67 180.33 1032 173.53 1036 169.92 1042 166.13 1050 163.06 1059 161.06 1067 160.34 1086 160.34 1086.67 159.33 1086.67 112.33 1086 111.66 1070 111.66ZM1196 145.22L1205 144.66 1215 146 1224 149.87 1229 153.75 1234.39 160.33 1238.2 167.33 1241.39 177.33 1243.34 191.33 1242 191.83 1161 191.8 1160.54 191.33 1160.73 189.33 1163.81 175.33 1166.5 168.33 1171.81 159.33 1176.46 154.33 1182 150.13 1188 147.22ZM1632 148.22L1643 147.83 1652 149.9 1660 154.06 1667 160.53 1671.5 166.33 1676.34 175.33 1680.2 187.33 1682.28 199.33 1683 212.33 1682.28 227.33 1680.2 239.33 1678.2 246.33 1675.34 253.33 1669.34 263.33 1660 272.6 1652 276.76 1645 278.66 1634 278.83 1628 277.53 1620 273.6 1614 268.13 1609 261.33 1604.81 252.33 1601.73 241.33 1599.67 226.33 1599.67 200.33 1601.73 185.33 1605.58 172.33 1609.62 164.33 1616.2 156.33 1623.01 151.33 1628 149.13ZM197 153.22L231 152.83 261 154 274 156.06 281 159.13 282.2 161.33 294.28 198.33 302.43 225.33 302 226.53 297 227.66 289 228 239 227 196 230 170 233 146 237 99 247.78 98.67 176.33 100 173.92 107 170 118 166.06 145 159.06 172 155.06ZM262 265L324 265 362 267 393 270.06 420 274.06 444 279.06 466 285.95 479 291.83 488 297 493.5 301.33 493.5 384.33 493 385 486 383.72 480 382.44 479.01 381.33 478.01 339.33 477.2 329.33 474.28 320.33 471.34 315.33 466 310 462 307.95 455 306.83 449 307.87 447 308.83 441.67 314.33 439.62 319.33 437.5 327.33 437.5 374.33 437 375 406 370.66 404.01 369.33 404.01 341.33 403.34 329.33 402.28 322.33 400.39 315.33 396.34 307.33 391 301.22 385 297.13 382 295.9 374 294.33 366 295.06 359 298 355 300.95 351.81 304.33 349.67 307.33 346.81 313.33 344.5 320.33 344.2 366.33 342 367.13 335 366 303 366.66 300 365.83 298.67 364.33 298.67 319.33 296.2 311.33 292.39 305.33 284 297.22 277 293.13 268 291 261 291.83 257 293 248 297.95 240.59 305.33 236.54 312.33 234.5 321.33 234.5 366.33 234 367.33 192 369.13 190.37 368.33 189.67 367.33 189.67 321.33 187.39 314.33 183.39 306.33 177 300.06 173 297.87 168 296.13 160 295.33 151 296.95 143 301.33 138 306.33 133.58 314.33 131.58 321.33 130.54 328.33 130.34 348.33 131 372.33 130.67 375.33 130 376.33 99 381 98.43 380.33 98.67 307.33 99.01 289.33 100 288.22 116 283.13 132 279 164 273.06 209 268ZM263 403.13L302 403 340 404 378 406.06 415 409 433 411 458 415 479 420.06 493 424.8 493.5 425.33 493.5 519.33 493 520.06 479 518.66 477 518 476.67 517.33 477.01 481.33 476.28 467.33 474.39 456.33 471.39 449.33 467 443.92 462 440.33 456 438.33 452 438.33 449 439.06 445.22 441.33 440.73 446.33 437.81 452.33 437.2 512.33 436 512.95 430 512.83 404 511 402.67 459.33 401.28 451.33 397.39 443.33 391 436 383 431.06 375 429 371 429 366 429.95 361 432 358 433.95 351.62 440.33 345.73 451.33 343.54 460.33 343.5 507.33 343 508.33 300 508 299.67 458.33 298.39 452.33 292.5 440.33 287 433.92 279 429 270 426.83 264 426.83 258 427.95 249 432.06 241.9 438.33 239.62 441.33 236.58 447.33 234.67 455.33 234.67 500.33 234.34 507.33 233.81 509.33 233 510 191 511 190.62 463.33 189.43 456.33 187.28 449.33 184.39 443.33 182.2 440.33 176 434.87 173 433.13 167 431.06 159 430.33 150 432.13 143 436.13 139.59 439.33 136.67 443.33 133.81 449.33 130.67 463.33 130.34 486.33 131 511.33 130.62 515.33 130 516.33 98 518.9 98.67 422.33 99.01 419.33 100 418.34 154 410 181 407 228 404ZM941 427.33L935 428.9 929 432.33 925 436.33 922 441.33 920.73 444.33 919.5 451.33 919.81 459.33 921.9 466.33 925 471.33 929 475.44 934 478.34 938 479.76 944 480.76 952 480.83 962 478.76 968 475.53 971 472.75 974.2 468.33 976.39 463.33 977.34 459.33 977.5 450.33 976.39 444.33 975.2 441.33 970 433.92 966 430.87 962 428.9 952 426.83ZM1649.34 437.33L1649 651.33 1650.73 670.33 1652.73 679.33 1655.62 687.33 1658.67 693.33 1662.62 699.33 1666 703.22 1723 703.34 1723.62 701.33 1714.62 689.33 1708.67 677.33 1705.67 667.33 1703.67 654.33 1703.01 641.33 1703 438.32 1702 437ZM716 444.33L716 702.33 717 703.34 771 703.34 771.5 702.33 771.5 588.33 772 587.34 858 587.34 859.34 586.33 859 546.89 771.67 546.33 771.5 488.33 772 487.83 887 487.66 887.34 444.33 886 443.83 717 443.83ZM1078.97 499.33L1063 502 1049 507 1042 510.87 1036 515.13 1028.59 522.33 1024.73 527.33 1020.81 534.33 1018.81 539.33 1016.81 547.33 1016 554.33 1016 562.33 1016.81 569.33 1018.62 576.33 1021.81 583.33 1027.81 591.33 1036 598.72 1045 604.53 1070 615.6 1110 629.13 1122 634.95 1127.34 639.33 1129.47 642.33 1131.2 646.33 1131.5 653.33 1130.43 657.33 1128.11 661.33 1125 664.53 1122 666.44 1116 668.72 1110 669.8 1097 670 1087 668.6 1077 664.83 1069.2 659.33 1062.67 651.33 1059.73 645.33 1058.39 640.33 1057 639.33 1007.99 639.33 1007 639.66 1006.67 641.33 1008.9 652.33 1014.81 667.33 1019.54 675.33 1025.2 682.33 1032 688.75 1039 693.79 1054 701.53 1064 704.6 1074 706.66 1093 708.34 1116 707.66 1128 705.76 1137 703.53 1147 699.76 1159 692.72 1168.2 684.33 1175.2 674.33 1179.39 664.33 1181.34 655.33 1181.67 650.33 1181.34 637.33 1179.28 628.33 1177.34 623.33 1172.34 615.33 1167.81 610.33 1159 603 1152 598.83 1140 593.13 1127 588.13 1091 576.72 1081 572.53 1076 569.66 1070.81 565.33 1067.5 560.33 1066.01 553.33 1066.62 548.33 1069.81 542.33 1072 540.13 1077 537.13 1085 535.06 1098 535 1104 536.13 1109 537.9 1115 541.75 1119.34 546.33 1121.2 549.33 1125 559.66 1173 559.66 1173.67 558.33 1173.34 554.33 1171.28 545.33 1169.2 539.33 1165.34 531.33 1159 522.53 1156 519.13 1150 514.06 1139 507.33 1129 503.22 1114 499.87 1099 498.66ZM1281.99 499.33L1271 501.06 1263 503.13 1255 506 1243 512.13 1236 516.95 1228 523.92 1220.67 532.33 1216.54 538.33 1211.58 547.33 1207.9 556.33 1204.62 567.33 1202.81 576.33 1200.67 598.33 1200.67 608.33 1202.67 629.33 1204.67 639.33 1207.62 649.33 1214.73 665.33 1219.73 673.33 1226 681.11 1232.22 687.33 1240 693.44 1249 698.72 1256 701.76 1265 704.72 1274 706.66 1291 708.34 1308 707.83 1317 706.66 1332 702.76 1345 696.79 1354 690.72 1364.59 680.33 1373.2 668.33 1378.2 658.33 1383.2 643.33 1385.5 630.33 1385 629.83 1333 629.83 1332 630.33 1330.28 640.33 1326.2 651.33 1322.47 657.33 1315 664.66 1307 668.6 1299 670 1289 669.53 1285 668.44 1279 665.66 1271.59 659.33 1267.9 654.33 1264.58 648.33 1260.67 637.33 1257.67 621.33 1257.01 611.33 1257.01 595.33 1257.73 585.33 1260.81 569.33 1264.81 558.33 1268.9 551.33 1272 547.53 1275.22 544.33 1280 540.9 1284 538.95 1291 537.06 1302 537 1309 538.9 1313 540.9 1318.81 545.33 1322.42 549.33 1326.2 555.33 1328.39 560.33 1330.28 566.33 1332 576.33 1333 577 1385 577 1385.5 576.33 1385.2 573.33 1381.39 556.33 1375.34 541.33 1369.11 531.33 1364.39 525.33 1357 518 1352 514 1344 509 1338 506.13 1322 501.06 1306 498.83 1292 498.66ZM1474.99 500.33L1462 503 1454 505.9 1445 510.83 1437 516.92 1430.59 523.33 1422.62 534.33 1416.62 546.33 1412.81 557.33 1409.67 570.33 1407.67 584.33 1407 595.33 1407 611.33 1407.67 621.33 1409.67 635.33 1413.62 651.33 1419.58 666.33 1424.73 675.33 1433 685.75 1438 690.53 1446 696.6 1458 702.53 1465 704.66 1475 706.66 1484 707.34 1500 706.66 1509 704.76 1515 702.72 1521 699.66 1529 693.92 1535.81 687.33 1542.34 678.33 1544 677.34 1550 677.34 1550.5 678.33 1550.5 702.33 1551 703.34 1600 703.34 1600.67 702.33 1600.67 504.33 1600 503.66 1551 503.66 1550.5 504.33 1550.34 529.33 1544 529.66 1542.81 529.33 1538.47 522.33 1532 514.92 1523 508 1517 504.9 1509 502.06 1498 500 1484 499.66ZM921.5 504.33L921.5 702.33 922 703.34 975 703.34 975.67 702.33 975.67 504.33 975 503.66 922 503.66ZM1497 538L1508 538.06 1516 540.13 1522 543.06 1526 545.95 1531.42 551.33 1536.39 558.33 1541.2 568.33 1544.34 579.33 1546.34 593.33 1546.5 610.33 1545.34 622.33 1542.2 635.33 1537.5 646.33 1532.34 654.33 1525 661.66 1516 666.76 1508 668.8 1499 669 1491 667.44 1485 664.6 1477.67 658.33 1472.62 651.33 1468.81 643.33 1465.62 632.33 1463.73 620.33 1463.01 608.33 1463.67 587.33 1465.67 574.33 1468.9 563.33 1472.73 555.33 1480 546.13 1484 543 1489.01 540.33ZM272 546.22L348 545.34 404 547 452 551 482 555.06 492.84 557.33 493.34 558.33 492.9 661.33 489 664.6 481 669.66 477 671 476.67 630.33 477.67 609.33 476.28 599.33 472.34 590.33 466 584.06 460 582 456 582 452 583.13 447 586.13 441.9 592.33 438.9 599.33 437.67 605.33 437.5 686.33 437 687.33 436 687.53 408 691.6 403 691.83 402.67 604.33 402.2 601.33 400.39 596.33 396.34 588.33 389 580.95 386 579 381 576.95 376 576 369 576.33 361 579.13 354.28 584.33 351.62 587.33 348.58 592.33 345.67 601.33 343.67 620.33 343.67 692.33 343 694.33 298 694 297.39 600.33 291.34 587.33 288.2 583.33 283 578.87 278 576.13 272 574.22 262 573.83 257 574.9 252 577 243.81 583.33 238.58 591.33 233.81 603.33 233.2 693.33 231 694.33 191 694.33 190 694 189.34 692.33 190.34 644.33 190.01 625.33 189.34 611.33 187.39 599.33 185.2 593.33 182.28 588.33 176 581.79 172 579.13 167 577.22 159 576.33 154 577 148 579.13 141 583.92 135.73 590.33 131.81 599.33 130.73 604.33 130 615.33 130.67 640.33 132 661.33 132 674.33 131.28 680.33 124 678.72 109 671.76 102 667.6 97.54 663.33 98.01 576.33 98.34 557.33 99 556.06 122 553 159 550 200 548Z"/></svg>